<?xml version="1.0" encoding="utf-8"?>
<!-- Generator: Adobe Illustrator 16.0.4, SVG Export Plug-In . SVG Version: 6.00 Build 0)  -->
<!DOCTYPE svg PUBLIC "-//W3C//DTD SVG 1.1//EN" "http://www.w3.org/Graphics/SVG/1.1/DTD/svg11.dtd">
<svg version="1.1" id="Layer_1" xmlns:sketch="http://www.bohemiancoding.com/sketch/ns"
	 xmlns="http://www.w3.org/2000/svg" xmlns:xlink="http://www.w3.org/1999/xlink" x="0px" y="0px" width="30px" height="15px"
	 viewBox="0 0 30 15" enable-background="new 0 0 30 15" xml:space="preserve">
<title>Untitled</title>
<desc>Created with Sketch.</desc>
<g id="Page-1" sketch:type="MSPage">
	<rect id="Rectangle-2" x="15" sketch:type="MSShapeGroup" fill="none" stroke="#FFFFFF" width="15" height="15">
	</rect>
	<path id="Path" sketch:type="MSShapeGroup" fill="#FFFFFF" d="M22.155,10.785c-0.017,0.024-0.026,0.051-0.048,0.072
		c-0.098,0.099-0.229,0.145-0.357,0.141c-0.129,0.004-0.258-0.042-0.357-0.141c-0.021-0.021-0.031-0.048-0.047-0.072l-3.182-2.904
		c-0.219-0.202-0.219-0.529,0-0.73c0.217-0.202,0.57-0.202,0.789,0L21.75,9.81l4.348-5.662c0.207-0.197,0.541-0.197,0.748,0
		c0.207,0.198,0.207,0.519,0,0.717L22.155,10.785L22.155,10.785z"/>
	
		<rect id="Rectangle-2_1_" sketch:type="MSShapeGroup" fill="none" stroke="#FFFFFF" stroke-miterlimit="10" width="15" height="15">
	</rect>
</g>
</svg>
